<svg xmlns="http://www.w3.org/2000/svg" xmlns:xlink="http://www.w3.org/1999/xlink" width="1080" height="699" viewBox="0 0 1080 699">
    <defs>
        <path id="a" d="M0 0h1080v699H0z"/>
        <linearGradient id="b" x1="50%" x2="50%" y1="0%" y2="100%">
            <stop offset="0%" stop-color="#FF731E"/>
            <stop offset="100%" stop-color="#FF9B4B"/>
        </linearGradient>
    </defs>
    <g fill="none" fill-rule="evenodd">
        <mask id="c" fill="#fff">
            <use xlink:href="#a"/>
        </mask>
        <use fill="#FFF" xlink:href="#a"/>
        <path stroke="url(#b)" stroke-width="40" d="M993.047-181.32L1214.094-53.7a20 20 0 0 1 10 17.32v255.244a20 20 0 0 1-10 17.32L993.047 363.807a20 20 0 0 1-20 0L752 236.185a20 20 0 0 1-10-17.32V-36.378A20 20 0 0 1 752-53.7l221.047-127.622a20 20 0 0 1 20 0z" mask="url(#c)" opacity=".5"/>
        <circle cx="89" cy="732" r="175" stroke="url(#b)" stroke-width="40" mask="url(#c)" opacity=".5"/>
        <circle cx="1080.5" cy="739.5" r="122.5" stroke="url(#b)" stroke-width="40" mask="url(#c)" opacity=".5"/>
    </g>
</svg>
